<?xml version="1.0" standalone="no"?>
<!DOCTYPE svg PUBLIC "-//W3C//DTD SVG 20010904//EN"
 "http://www.w3.org/TR/2001/REC-SVG-20010904/DTD/svg10.dtd">
<svg version="1.0" xmlns="http://www.w3.org/2000/svg"
 width="900.000000pt" height="520.000000pt" viewBox="0 0 900.000000 520.000000"
 preserveAspectRatio="xMidYMid meet">

<g transform="translate(0.000000,520.000000) scale(0.100000,-0.100000)"
fill="#000000" stroke="none">
<path d="M3475 5188 c-33 -11 -83 -47 -117 -81 -39 -41 -62 -108 -68 -197 l-5
-85 -226 -5 c-254 -6 -259 -7 -280 -79 -7 -25 -9 -680 -7 -2046 3 -2160 0
-2031 52 -2066 18 -12 236 -14 1376 -17 965 -2 1366 0 1393 8 25 7 45 22 57
43 20 31 20 67 20 2050 0 2208 4 2068 -56 2096 -17 7 -111 11 -283 11 l-258 0
-5 85 c-9 142 -76 242 -186 279 -175 60 -331 -66 -348 -281 l-7 -83 -36 0 -37
0 -11 93 c-12 105 -35 158 -89 211 -129 126 -328 87 -410 -81 -22 -43 -29 -75
-32 -139 l-5 -84 -43 0 -44 0 0 70 c0 95 -29 170 -89 230 -70 70 -172 97 -256
68z m131 -243 c9 -23 14 -73 14 -151 l0 -116 31 -29 31 -29 183 0 c180 0 184
1 212 24 28 24 28 27 33 158 6 154 19 188 70 188 47 0 60 -37 60 -170 0 -124
13 -169 56 -189 16 -7 90 -11 199 -11 l175 0 32 29 33 29 5 140 c5 152 13 172
61 172 47 0 59 -30 59 -150 0 -118 11 -168 41 -196 19 -17 44 -19 293 -24
l271 -5 3 -1897 2 -1898 -1245 0 -1245 0 0 1900 0 1900 215 0 c295 0 295 0
295 196 0 82 4 123 15 144 26 51 76 44 101 -15z"/>
<path d="M3261 3966 c-63 -35 -67 -120 -7 -168 20 -16 83 -18 923 -18 l903 0
31 28 c26 24 32 36 32 72 0 36 -6 48 -32 72 l-31 28 -898 0 c-725 -1 -902 -3
-921 -14z"/>
<path d="M3265 3268 c-62 -34 -74 -108 -24 -157 l31 -31 904 0 904 0 31 28
c26 24 32 36 32 72 0 36 -6 48 -32 72 l-31 28 -898 0 c-633 -1 -903 -4 -917
-12z"/>
<path d="M3265 2568 c-62 -34 -74 -110 -26 -159 l29 -29 909 0 909 0 28 29
c48 50 32 138 -30 161 -37 15 -1793 13 -1819 -2z"/>
<path d="M3261 1866 c-57 -32 -68 -111 -22 -157 l29 -29 910 0 909 0 26 25
c13 14 27 38 30 53 7 35 -21 93 -53 109 -38 19 -1795 18 -1829 -1z"/>
<path d="M5763 4318 c-31 -15 -56 -72 -48 -108 4 -16 20 -41 37 -55 28 -24 36
-25 149 -25 l119 0 0 -1925 0 -1925 -1265 0 -1265 0 0 65 c0 104 -30 145 -106
145 -27 0 -46 -7 -66 -27 l-28 -27 0 -144 c0 -79 5 -152 10 -163 28 -51 -39
-49 1457 -49 1359 0 1389 0 1420 20 22 13 35 31 43 58 7 28 9 665 8 2077 l-3
2037 -33 29 -32 29 -188 -1 c-110 0 -196 -5 -209 -11z"/>
</g>
</svg>
