<?xml version="1.0" standalone="no"?>
<!DOCTYPE svg PUBLIC "-//W3C//DTD SVG 20010904//EN"
 "http://www.w3.org/TR/2001/REC-SVG-20010904/DTD/svg10.dtd">
<svg version="1.0" xmlns="http://www.w3.org/2000/svg"
 width="920.000000pt" height="762.000000pt" viewBox="0 0 920.000000 762.000000"
 preserveAspectRatio="xMidYMid meet">

<g transform="translate(0.000000,762.000000) scale(0.100000,-0.100000)"
fill="#000000" stroke="none">
<path d="M5015 7460 c-22 -4 -117 -10 -212 -13 l-171 -5 -89 -53 c-165 -99
-298 -183 -306 -193 -5 -6 -6 -59 -3 -118 6 -117 6 -118 -57 -118 -18 -1 -57
-10 -87 -21 -30 -11 -75 -27 -100 -36 -25 -9 -92 -38 -150 -65 -85 -41 -121
-65 -186 -127 -45 -42 -127 -118 -183 -169 -56 -52 -122 -124 -148 -160 -26
-37 -72 -94 -103 -128 -45 -49 -81 -111 -199 -345 -79 -156 -148 -290 -154
-297 -6 -8 -14 -35 -18 -60 -5 -26 -24 -93 -43 -150 -19 -56 -49 -164 -67
-240 -28 -122 -31 -155 -33 -302 -2 -315 33 -555 109 -735 13 -33 25 -69 25
-80 0 -36 169 -359 238 -455 49 -68 91 -113 148 -157 43 -34 101 -83 128 -108
28 -25 60 -45 72 -45 12 0 44 -17 71 -38 26 -21 89 -62 138 -91 50 -29 116
-71 148 -92 32 -22 63 -39 69 -39 5 0 32 -18 59 -39 36 -29 63 -41 98 -46 27
-4 56 -12 65 -18 12 -10 18 -63 31 -257 21 -307 22 -347 9 -360 -7 -7 -41 5
-106 38 -192 98 -389 256 -437 350 -14 27 -28 42 -41 42 -10 0 -61 -36 -113
-79 -51 -44 -118 -94 -148 -112 -30 -18 -67 -44 -83 -57 -16 -13 -50 -34 -75
-46 -57 -27 -259 -191 -279 -226 -9 -15 -30 -35 -48 -46 -35 -20 -227 -187
-305 -265 -55 -55 -79 -122 -57 -161 85 -159 444 -501 645 -616 37 -21 120
-75 183 -120 199 -140 306 -190 685 -322 110 -37 144 -56 150 -83 9 -44 25
-203 25 -257 0 -30 5 -71 10 -92 9 -33 15 -37 53 -44 23 -4 134 -7 247 -6 155
1 216 -3 251 -14 25 -8 65 -13 90 -12 24 1 63 -1 86 -6 41 -7 42 -7 66 32 22
34 323 330 387 380 14 11 80 37 145 57 252 77 274 86 322 125 25 22 73 53 106
71 79 42 195 135 324 261 157 154 258 315 363 578 53 133 109 301 120 360 5
25 18 72 30 104 12 32 25 93 30 135 5 42 13 87 18 101 19 50 20 687 1 722 -6
11 -15 51 -20 89 -4 37 -20 96 -34 130 -14 34 -25 72 -25 84 0 20 -83 224
-125 305 -10 19 -38 58 -64 85 -25 28 -67 78 -93 112 -25 33 -73 83 -106 109
-32 27 -88 73 -123 101 -64 52 -237 155 -334 198 -82 36 -335 104 -415 111
-41 4 -86 11 -99 16 -23 8 -24 10 -16 81 5 40 7 106 4 147 -4 88 -5 168 -1
457 l2 212 68 -19 c110 -31 264 -90 370 -142 19 -10 27 -7 55 19 31 31 401
283 414 283 3 0 29 12 58 26 41 21 55 34 65 63 7 20 41 93 75 163 35 71 67
142 70 160 4 17 27 69 51 115 24 47 58 130 75 186 17 56 39 118 50 137 10 19
25 62 33 95 9 33 18 70 22 81 5 18 -13 39 -103 119 -127 114 -166 140 -333
222 -158 78 -535 200 -643 209 -39 3 -96 10 -126 16 l-54 10 7 56 c3 32 15 86
26 122 11 36 23 95 27 132 6 66 5 68 -21 78 -32 12 -420 12 -481 0z m423 -85
c8 -7 -15 -124 -45 -233 -26 -93 -26 -94 -7 -113 14 -14 44 -23 104 -30 146
-19 184 -26 213 -37 16 -7 41 -12 57 -12 16 0 63 -13 104 -30 41 -16 104 -36
139 -44 36 -9 87 -29 113 -46 26 -16 53 -30 59 -30 6 0 47 -17 91 -39 44 -21
91 -42 105 -46 13 -4 42 -23 64 -41 22 -18 76 -62 120 -98 44 -35 78 -70 77
-77 -2 -8 -8 -38 -12 -67 -9 -52 -45 -152 -80 -222 -10 -19 -21 -51 -25 -70
-4 -19 -23 -60 -42 -91 -19 -31 -45 -90 -58 -132 -13 -41 -40 -105 -60 -142
-19 -37 -35 -73 -35 -81 0 -67 -90 -110 -166 -80 -21 9 -88 27 -147 41 -60 14
-122 32 -138 41 -16 8 -55 20 -87 25 -31 6 -90 22 -131 36 -92 31 -363 55
-383 35 -8 -8 -16 -60 -20 -140 -4 -70 -11 -167 -17 -217 -6 -59 -5 -116 1
-165 7 -49 7 -137 1 -255 -6 -115 -5 -214 1 -274 7 -63 6 -128 -1 -200 -6 -59
-8 -125 -4 -147 l7 -39 56 3 c74 5 220 -26 418 -89 143 -44 166 -55 279 -129
160 -105 282 -200 323 -253 18 -23 61 -73 96 -112 82 -90 146 -220 207 -423
67 -225 85 -334 80 -495 -10 -311 -26 -552 -40 -613 -18 -77 -90 -268 -115
-304 -10 -14 -47 -75 -83 -135 -54 -91 -84 -129 -169 -210 -56 -54 -154 -153
-217 -219 -79 -84 -132 -132 -177 -158 -35 -20 -84 -51 -109 -68 -69 -48 -122
-68 -226 -86 -52 -9 -96 -17 -99 -19 -3 -2 -61 -11 -130 -20 -190 -25 -191
-27 -140 -130 16 -33 30 -70 30 -81 0 -12 7 -41 15 -64 30 -84 30 -84 -93 -76
-82 6 -123 4 -168 -7 -71 -18 -373 -31 -393 -18 -13 8 -13 31 -2 168 20 238
23 217 -24 226 -22 5 -69 20 -105 33 -36 13 -96 31 -134 39 -199 46 -465 158
-556 234 -25 21 -90 61 -145 89 -97 50 -362 240 -455 326 -25 23 -66 57 -92
75 -27 19 -48 38 -48 41 0 4 -33 44 -74 88 -88 96 -100 115 -87 140 22 41 192
189 286 250 55 36 113 76 129 89 15 13 44 30 64 39 19 8 57 35 83 59 27 25 60
50 74 57 25 11 29 8 101 -70 68 -74 203 -175 294 -222 14 -7 34 -21 46 -31 11
-11 59 -35 105 -54 46 -19 91 -44 101 -55 9 -11 26 -20 37 -20 12 0 49 -11 81
-25 125 -53 407 -104 423 -78 17 27 25 1360 9 1374 -7 6 -46 14 -257 50 -335
57 -614 196 -831 413 -108 108 -284 336 -284 367 0 11 -22 68 -49 127 -103
227 -140 373 -141 567 -2 207 8 469 19 505 6 19 18 76 27 125 8 50 26 122 39
161 34 101 112 263 146 302 16 18 29 37 29 42 0 4 21 32 46 62 25 29 52 68 60
87 18 42 57 89 202 238 61 64 112 119 112 124 0 4 24 24 53 45 28 20 72 57 97
80 32 31 74 55 145 84 155 64 225 88 293 100 34 6 105 26 156 45 52 19 124 39
160 46 l66 11 0 53 c0 30 -13 94 -30 151 -17 55 -30 113 -28 129 l3 30 110 2
c61 2 198 7 305 12 189 8 287 7 298 -4z m-793 -48 c15 -80 10 -87 -105 -134
-58 -23 -121 -51 -141 -63 -20 -11 -46 -20 -58 -20 -26 0 -38 25 -21 45 16 19
116 88 166 113 21 11 48 29 58 41 11 12 25 21 31 21 7 0 18 7 25 15 20 25 39
17 45 -18z m51 -202 c10 -40 0 -51 -62 -64 -33 -7 -98 -26 -145 -42 -86 -29
-149 -37 -149 -20 0 14 205 112 274 132 79 23 75 23 82 -6z m-979 -519 c-46
-49 -57 -55 -77 -48 -23 8 -23 9 11 33 68 49 114 78 117 75 2 -2 -21 -29 -51
-60z m-157 -136 c12 -8 8 -17 -28 -52 -23 -24 -52 -59 -65 -78 -25 -38 -57
-49 -75 -27 -10 11 -5 24 24 61 32 42 107 106 123 106 3 0 13 -5 21 -10z
m-252 -370 c-57 -86 -78 -110 -96 -110 -12 0 -34 -7 -47 -16 -31 -20 -33 -4
-6 34 10 15 28 46 40 70 12 24 30 46 39 49 9 4 44 24 76 45 33 21 61 38 63 38
2 0 -30 -49 -69 -110z m-138 -247 c0 -9 -8 -40 -17 -70 -16 -49 -22 -57 -87
-99 -39 -24 -72 -41 -74 -36 -6 19 40 121 71 155 29 33 79 67 100 67 4 0 7 -7
7 -17z m2230 -143 c0 -15 -50 -60 -66 -60 -14 0 -20 51 -7 63 11 11 73 8 73
-3z m239 -24 c19 -7 36 -17 38 -22 1 -5 -32 -32 -75 -61 -42 -29 -113 -82
-156 -118 -110 -93 -136 -101 -136 -42 0 62 19 105 55 127 19 12 35 26 35 31
0 5 10 14 23 18 12 5 47 25 77 45 59 38 84 42 139 22z m246 -68 c31 -14 32
-23 1 -40 -51 -28 -214 -144 -260 -185 -54 -48 -83 -54 -141 -26 -39 18 -44
30 -17 40 9 4 40 25 67 49 53 44 212 149 248 164 31 12 72 12 102 -2z m-2785
-34 c0 -76 -55 -165 -125 -201 -16 -9 -45 -29 -64 -45 -18 -16 -35 -28 -36
-26 -6 5 23 133 36 161 6 14 25 31 42 38 16 7 53 30 81 51 56 42 66 45 66 22z
m3000 -29 c17 -9 30 -19 30 -24 0 -24 -343 -261 -378 -261 -27 0 -92 36 -92
50 0 5 10 15 23 21 12 6 34 23 48 38 36 35 80 65 99 66 9 1 45 21 80 46 122
84 140 90 190 64z m-3046 -337 c-4 -62 -11 -118 -16 -125 -6 -7 -35 -29 -66
-49 -32 -21 -83 -61 -114 -91 -31 -29 -60 -53 -64 -53 -4 0 -4 43 -1 95 7 119
27 164 104 225 82 65 145 110 155 110 5 0 6 -49 2 -112z m0 -269 c3 -17 6 -49
6 -69 0 -34 -5 -42 -47 -73 -27 -19 -82 -64 -123 -101 -41 -36 -78 -66 -82
-66 -11 0 -20 60 -16 115 3 47 5 51 52 82 27 18 68 50 90 71 36 35 89 70 107
72 4 0 9 -14 13 -31z m22 -246 c3 -16 12 -49 20 -75 15 -51 18 -87 6 -103 -4
-6 -27 -26 -52 -45 -25 -19 -76 -63 -114 -97 -38 -35 -74 -63 -81 -63 -16 0
-36 70 -42 145 l-5 60 64 61 c72 70 167 144 185 144 7 0 15 -12 19 -27z m110
-307 c40 -86 40 -88 -108 -219 -72 -64 -137 -117 -143 -117 -15 0 -69 145 -62
164 10 27 267 236 281 228 4 -2 19 -28 32 -56z m120 -268 c54 -84 56 -79 -67
-189 -45 -41 -102 -93 -125 -116 -24 -24 -47 -43 -53 -43 -12 0 -91 153 -91
178 0 30 262 258 281 246 6 -3 31 -38 55 -76z m168 -228 l45 -59 -112 -109
c-154 -151 -173 -165 -200 -158 -25 7 -97 102 -97 128 0 14 89 102 245 241 48
43 56 40 119 -43z m178 -163 c31 -28 66 -59 79 -68 14 -10 19 -20 15 -28 -5
-7 -61 -54 -125 -106 -64 -51 -127 -104 -140 -119 -14 -14 -34 -26 -47 -26
-22 0 -164 104 -164 120 0 5 17 22 38 37 20 15 73 64 117 109 45 44 95 89 113
99 18 11 32 23 32 27 0 20 30 4 82 -45z m220 -154 c24 -9 56 -25 71 -36 27
-19 28 -20 10 -39 -10 -12 -67 -62 -128 -113 -60 -51 -121 -104 -134 -119 -14
-14 -33 -26 -43 -26 -22 0 -93 46 -122 79 -19 21 -19 22 20 62 21 23 62 54 91
71 29 16 83 54 120 84 37 29 69 54 70 54 2 0 22 -7 45 -17z m213 -112 c3 -6
27 -13 53 -16 56 -7 92 -21 92 -34 0 -6 -31 -32 -69 -58 -105 -73 -200 -144
-248 -185 -51 -43 -77 -47 -134 -18 -43 23 -55 41 -42 63 16 29 189 179 240
208 29 17 56 35 59 40 7 12 41 12 49 0z m360 -86 c89 -23 87 -22 76 -44 -6
-10 -88 -74 -183 -140 -95 -67 -191 -135 -213 -152 -35 -27 -46 -30 -87 -26
-31 2 -59 13 -83 31 -42 33 -40 37 45 97 30 21 102 77 159 124 106 86 170 125
206 125 12 0 48 -7 80 -15z m175 -115 c0 -12 -27 -39 -72 -73 -40 -29 -131
-111 -202 -181 -71 -69 -136 -131 -146 -136 -15 -8 -18 -3 -24 38 -7 46 -6 48
38 88 24 22 99 79 167 125 67 46 145 103 173 125 53 43 66 46 66 14z m0 -212
c0 -56 -2 -63 -35 -94 -19 -18 -35 -37 -35 -43 0 -6 -5 -11 -10 -11 -6 0 -32
-19 -58 -43 -26 -24 -63 -53 -82 -65 -19 -11 -55 -46 -80 -77 -63 -80 -110
-120 -121 -103 -15 23 -10 141 6 165 8 12 43 41 78 66 35 25 80 65 101 89 22
23 56 57 77 73 20 17 61 49 89 73 29 23 56 40 61 36 5 -3 9 -33 9 -66z m-10
-276 c0 -79 -17 -118 -72 -159 -20 -15 -98 -83 -172 -150 -74 -68 -139 -123
-144 -123 -11 0 -22 57 -22 111 0 43 26 80 78 109 20 12 55 46 77 77 22 30 59
66 82 80 23 13 55 39 71 56 26 29 76 64 95 66 4 1 7 -29 7 -67z m-2 -290 c0
-62 -2 -69 -32 -97 -17 -17 -44 -48 -59 -68 -15 -20 -60 -61 -99 -91 l-72 -54
-40 16 c-69 28 -79 37 -71 61 3 11 26 32 49 46 23 14 48 35 55 47 7 13 42 45
79 73 37 27 91 71 120 98 28 26 56 46 61 42 5 -3 9 -36 9 -73z m1 -282 l2 -70
-49 0 c-26 0 -57 6 -68 14 -18 14 -16 17 38 70 32 31 62 56 66 56 5 0 10 -31
11 -70z m-1806 -213 c9 -21 28 -42 40 -46 21 -8 77 -77 77 -94 0 -7 -128 -136
-222 -224 -58 -55 -66 -52 -143 51 -73 96 -72 110 8 193 75 80 185 165 206
161 9 -2 24 -20 34 -41z m252 -268 c28 -28 62 -57 78 -65 36 -19 35 -50 -5
-82 -18 -15 -74 -68 -125 -119 -55 -55 -100 -93 -112 -93 -25 0 -171 128 -171
149 0 17 210 230 245 249 32 18 38 15 90 -39z m3370 -167 c-61 -125 -89 -159
-73 -90 14 65 46 129 80 166 18 17 35 32 39 32 3 0 -17 -49 -46 -108z m-3123
-26 c29 -13 62 -33 72 -45 26 -29 12 -57 -51 -107 -26 -21 -83 -71 -125 -113
-75 -72 -78 -74 -105 -62 -39 18 -123 81 -123 92 0 15 251 259 266 259 7 0 37
-11 66 -24z m3003 -63 c-3 -21 -17 -61 -30 -89 -12 -29 -26 -67 -30 -85 -9
-43 -38 -90 -65 -107 -21 -13 -22 -12 -15 19 13 58 85 240 107 270 30 40 42
37 33 -8z m-2752 -94 c44 -22 87 -57 87 -70 0 -4 -42 -41 -92 -83 -51 -41
-115 -97 -143 -125 -27 -28 -55 -51 -63 -51 -19 0 -130 72 -137 88 -7 18 97
126 160 167 28 18 63 47 79 64 35 37 52 38 109 10z m2542 -111 c-4 -13 -38
-82 -76 -154 -68 -130 -70 -132 -152 -192 -45 -33 -84 -56 -86 -50 -2 5 17 40
43 77 25 37 53 87 61 112 12 32 41 69 108 135 51 49 96 91 100 92 5 1 5 -8 2
-20z m-2312 -28 c14 -11 39 -23 56 -26 74 -15 62 -51 -43 -129 -41 -30 -95
-79 -121 -110 -27 -31 -56 -60 -66 -66 -21 -11 -113 23 -157 58 l-27 21 31 39
c30 37 191 175 249 213 38 25 46 25 78 0z m311 -141 c36 -17 64 -35 60 -40 -3
-5 -26 -23 -52 -41 -46 -31 -91 -68 -196 -160 -33 -30 -62 -48 -78 -48 -20 0
-110 39 -127 55 -7 8 56 74 119 126 36 29 86 72 112 96 28 26 57 43 71 43 14
0 55 -14 91 -31z m354 -104 c5 -4 -174 -178 -234 -227 -51 -42 -64 -48 -105
-48 -28 0 -69 10 -105 26 l-59 26 60 55 c33 30 89 75 125 100 36 26 79 59 95
73 54 49 61 50 144 22 42 -13 77 -26 79 -27z m1249 -94 c-84 -124 -87 -128
-138 -144 -29 -10 -54 -15 -57 -12 -3 3 12 24 35 48 22 23 62 79 89 124 42 69
56 85 99 106 28 13 52 20 53 15 2 -5 -34 -66 -81 -137z m-153 47 c-13 -22
-143 -176 -154 -183 -6 -4 -17 -22 -25 -41 -18 -43 -35 -36 -35 15 0 32 11 52
68 124 45 58 75 87 92 90 51 8 61 7 54 -5z m-214 -32 c0 -8 -8 -24 -19 -37
-16 -20 -21 -21 -35 -10 -21 18 -20 48 2 54 34 9 52 7 52 -7z m-837 -84 c-5
-19 -58 -78 -155 -171 -81 -77 -151 -141 -156 -141 -10 0 -22 47 -22 85 0 24
63 84 143 137 21 14 54 45 74 68 20 23 55 56 77 72 l41 30 3 -25 c2 -14 -1
-38 -5 -55z m-19 -219 c-3 -27 -10 -55 -15 -64 -22 -43 -231 -219 -261 -219
-4 0 -8 18 -8 39 0 38 6 45 135 165 75 69 140 126 146 126 6 0 8 -18 3 -47z
m677 -13 c42 0 12 -41 -133 -187 l-153 -153 -57 0 c-44 0 -58 4 -58 15 0 17
286 322 309 329 9 2 29 2 45 0 16 -2 37 -4 47 -4z m-231 -28 c0 -4 -21 -28
-46 -52 -25 -25 -69 -74 -97 -110 -97 -124 -104 -130 -164 -130 -29 0 -53 4
-53 9 0 5 19 27 41 48 23 21 49 51 59 67 10 15 58 61 106 102 70 59 94 74 121
74 18 0 33 -4 33 -8z m-239 -29 c-5 -10 -66 -74 -135 -143 l-125 -124 -48 3
c-79 5 -79 12 4 76 42 33 105 93 141 133 l65 72 54 0 c48 0 53 -2 44 -17z"/>
<path d="M4811 5789 c-13 -5 -68 -34 -122 -64 -128 -72 -226 -175 -304 -320
-62 -114 -75 -168 -82 -334 -4 -104 -2 -122 23 -208 25 -83 37 -104 94 -173
80 -96 174 -180 238 -210 26 -13 68 -33 93 -46 27 -14 65 -24 88 -24 61 0 64
15 56 260 -6 199 -9 303 -8 365 0 17 1 64 1 105 0 63 9 348 14 430 1 14 1 64
0 112 -3 112 -22 135 -91 107z m19 -131 l0 -43 -101 -65 c-55 -36 -115 -77
-133 -92 -19 -16 -37 -28 -41 -28 -4 0 -18 -9 -32 -20 -33 -26 -43 -25 -43 3
0 12 20 47 45 77 25 30 45 58 45 62 0 18 215 144 253 147 4 1 7 -18 7 -41z
m-42 -330 c-18 -15 -57 -41 -86 -58 -29 -17 -89 -63 -133 -103 -126 -112 -180
-157 -190 -157 -13 0 -11 117 4 175 12 49 16 52 127 128 63 43 158 103 210
132 l95 55 3 -73 c3 -70 2 -72 -30 -99z m20 -180 l-3 -83 -117 -80 c-64 -44
-144 -104 -178 -132 -34 -29 -65 -53 -71 -53 -13 0 -49 61 -49 83 0 22 32 53
122 119 37 27 81 66 97 87 28 36 172 141 192 141 6 0 9 -35 7 -82z m15 -270
c5 -79 5 -82 -21 -102 -15 -12 -64 -54 -109 -94 l-83 -73 -30 21 c-17 12 -42
37 -56 55 -24 32 -25 35 -9 59 9 13 27 31 39 40 13 8 54 40 90 72 57 47 144
101 167 103 3 1 9 -36 12 -81z m26 -310 c2 -44 -30 -54 -100 -33 -33 10 -59
22 -59 26 0 15 45 60 95 93 l50 33 7 -46 c3 -25 7 -58 7 -73z"/>
<path d="M5139 3248 c0 -13 -2 -239 -4 -503 -2 -264 -8 -525 -14 -580 -9 -87
-8 -102 6 -117 34 -37 93 -12 200 86 97 90 137 147 189 274 53 126 71 228 55
303 -6 28 -11 63 -11 78 0 39 -49 154 -99 233 -33 53 -62 81 -151 147 -92 69
-145 101 -166 101 -2 0 -4 -10 -5 -22z m180 -194 c15 -19 18 -31 11 -44 -11
-21 -89 -90 -102 -90 -4 0 -8 45 -8 100 l0 100 39 -20 c22 -10 48 -31 60 -46z
m131 -192 c0 -16 -26 -51 -77 -106 -43 -45 -90 -97 -105 -114 -42 -51 -48 -42
-48 63 0 82 3 97 18 102 9 4 48 38 86 77 l69 70 28 -34 c16 -19 29 -45 29 -58z
m31 -179 c6 -99 -8 -121 -143 -224 -43 -33 -82 -68 -88 -79 -6 -11 -18 -20
-27 -20 -13 0 -15 10 -11 59 l4 59 116 116 c63 64 123 116 132 116 10 0 16 -9
17 -27z m-88 -341 c-15 -20 -35 -49 -43 -63 -17 -30 -125 -129 -140 -129 -24
0 -7 44 33 88 24 26 51 58 60 71 21 32 111 95 115 81 2 -6 -9 -27 -25 -48z"/>
</g>
</svg>
