<?xml version="1.0" standalone="no"?>
<!DOCTYPE svg PUBLIC "-//W3C//DTD SVG 20010904//EN"
 "http://www.w3.org/TR/2001/REC-SVG-20010904/DTD/svg10.dtd">
<svg version="1.0" xmlns="http://www.w3.org/2000/svg"
 width="920.000000pt" height="459.000000pt" viewBox="0 0 920.000000 459.000000"
 preserveAspectRatio="xMidYMid meet">

<g transform="translate(0.000000,459.000000) scale(0.100000,-0.100000)"
fill="#000000" stroke="none">
<path d="M4670 4579 c-282 -10 -635 -55 -933 -120 -76 -16 -194 -34 -262 -39
-201 -15 -418 -67 -780 -187 -499 -165 -758 -280 -1154 -516 -291 -173 -401
-256 -602 -456 -259 -260 -420 -555 -451 -828 -22 -192 15 -487 98 -773 66
-226 109 -290 233 -349 51 -24 67 -26 176 -26 118 0 121 1 199 38 44 20 103
55 130 76 82 61 109 71 224 81 62 6 150 22 210 40 57 16 145 35 195 41 109 13
143 25 245 85 43 24 115 56 162 70 47 14 132 41 190 60 58 18 195 50 305 69
130 23 270 56 400 95 110 32 229 66 265 75 36 9 73 19 84 22 32 9 10 -13 -147
-144 -84 -70 -183 -153 -221 -185 -39 -32 -122 -93 -185 -135 -174 -115 -223
-154 -381 -309 l-146 -142 -101 5 c-119 7 -161 -2 -276 -57 -138 -65 -185
-127 -208 -269 -13 -89 1 -233 31 -314 25 -65 77 -129 135 -162 30 -18 118
-43 284 -80 132 -29 303 -73 378 -95 353 -107 447 -130 568 -141 83 -7 334 -7
820 0 610 8 719 12 845 30 80 11 307 41 505 66 427 55 513 73 750 158 99 35
232 81 295 102 222 72 745 294 1085 460 263 129 379 221 542 429 48 61 112
140 142 175 82 98 156 217 231 374 113 235 163 387 176 532 14 151 -38 384
-136 617 -34 78 -68 168 -77 198 -69 240 -323 479 -803 755 -293 168 -629 331
-801 389 -276 92 -870 222 -1169 256 -360 40 -585 47 -1070 29z m570 -135
c397 -21 904 -97 1172 -174 532 -153 1001 -355 1381 -592 219 -136 448 -335
528 -458 41 -64 173 -389 190 -470 16 -75 5 -274 -20 -376 -43 -174 -119 -344
-206 -464 -209 -285 -689 -644 -1190 -890 -425 -209 -1128 -442 -1535 -510
-337 -57 -507 -68 -1130 -75 -800 -10 -1225 7 -1525 60 -235 42 -604 174 -692
249 -44 37 -45 80 -2 124 60 62 71 61 315 -18 357 -115 481 -140 794 -155 262
-13 401 -26 590 -56 341 -54 361 -53 1055 35 149 19 367 42 485 51 348 26 416
37 684 110 182 49 672 240 872 340 182 90 516 286 644 377 216 154 374 283
419 344 49 65 191 331 227 424 28 72 48 231 42 334 -7 110 -49 231 -155 446
-78 158 -93 181 -157 245 -125 125 -305 239 -629 402 -499 249 -692 327 -1052
424 -181 49 -447 90 -850 133 -332 36 -316 34 -600 42 -298 8 -381 2 -810 -57
-336 -45 -531 -79 -665 -115 -103 -28 -465 -148 -490 -162 -8 -5 -42 -17 -75
-26 -89 -26 -382 -131 -525 -188 -228 -92 -398 -185 -820 -446 -331 -206 -481
-347 -571 -538 -78 -165 -91 -320 -38 -477 42 -127 98 -232 124 -232 30 0 25
58 -15 190 -57 185 -44 320 48 500 74 146 212 270 514 462 136 87 145 91 250
109 192 33 405 6 438 -56 20 -37 30 -82 24 -106 -7 -27 -166 -157 -218 -179
-61 -26 -256 -38 -492 -31 -204 6 -222 6 -243 -11 -29 -23 -21 -44 27 -70 83
-47 170 -66 312 -69 155 -4 321 10 397 31 66 19 238 146 293 217 48 61 64 114
57 197 -5 66 -22 99 -68 134 -40 29 -176 54 -321 58 -45 2 -74 7 -71 12 18 30
384 180 773 318 124 44 239 87 257 95 17 7 35 14 41 14 5 0 58 18 117 40 310
117 614 176 1335 261 159 18 217 21 415 16 352 -9 691 -44 1130 -118 337 -56
500 -101 754 -208 176 -75 220 -98 201 -105 -8 -3 -53 -18 -100 -34 -322 -110
-394 -225 -245 -392 26 -30 63 -86 80 -125 55 -120 85 -134 323 -155 68 -6
172 -17 232 -25 131 -16 169 -10 297 46 125 55 213 112 213 139 0 33 -26 31
-225 -17 -147 -35 -152 -35 -250 -25 -55 6 -161 14 -235 18 -161 7 -178 15
-247 112 -26 37 -65 89 -86 116 -34 44 -36 51 -24 70 22 34 121 82 283 136 83
27 157 50 165 50 17 0 119 -43 119 -50 0 -3 -27 -13 -60 -23 -43 -12 -73 -29
-105 -60 -41 -40 -45 -48 -45 -92 0 -99 62 -149 210 -168 98 -12 144 -2 138
30 -3 16 -28 29 -169 88 -63 27 4 84 141 119 84 22 94 19 259 -76 238 -138
351 -248 446 -438 57 -113 125 -327 125 -392 0 -32 -85 -144 -175 -233 -95
-93 -185 -149 -264 -166 -69 -14 -186 -7 -226 13 -32 17 -128 98 -123 104 2 2
27 -8 56 -22 68 -32 186 -57 235 -50 79 13 153 73 180 148 3 10 33 59 65 110
89 141 104 171 100 204 -2 21 -9 30 -25 32 -19 3 -41 -22 -130 -144 -60 -81
-125 -166 -145 -188 -36 -40 -38 -41 -100 -41 -87 1 -142 30 -252 138 -92 89
-120 103 -147 71 -16 -19 -15 -158 1 -262 22 -136 62 -183 137 -163 39 11 50
8 114 -31 74 -45 160 -62 241 -49 125 21 239 84 366 205 89 84 88 82 -13 -128
-87 -179 -141 -256 -221 -313 -32 -23 -97 -70 -144 -103 -141 -102 -298 -204
-422 -275 -212 -120 -732 -359 -1043 -477 -282 -107 -427 -133 -932 -162 -45
-3 -85 -1 -88 4 -3 5 -65 46 -138 91 -144 89 -242 162 -252 187 -11 29 37 45
290 97 217 44 247 45 310 2 97 -65 115 -67 115 -17 0 31 -25 68 -83 122 -68
63 -77 64 -266 39 -285 -39 -421 -76 -517 -142 -65 -44 -70 -78 -24 -169 35
-69 135 -181 191 -212 22 -12 39 -25 39 -28 0 -4 -60 -15 -132 -24 -73 -10
-200 -28 -283 -42 -184 -29 -322 -31 -476 -4 -63 10 -186 26 -274 35 -88 9
-216 25 -285 36 -69 10 -170 21 -225 24 -227 12 -265 16 -363 40 -122 30 -252
81 -252 100 0 21 115 161 209 255 47 47 154 134 236 194 217 158 596 462 826
664 158 138 183 183 135 239 -21 24 -31 28 -73 27 -52 -1 -62 -4 -568 -130
-309 -78 -386 -98 -610 -163 -38 -11 -162 -36 -275 -56 -165 -29 -398 -82
-535 -121 -15 -5 -10 4 17 32 46 48 68 100 68 158 0 36 -5 48 -26 65 -30 23
-74 27 -125 10 -71 -24 -104 -82 -54 -95 14 -4 29 -4 32 -1 3 4 14 2 25 -4 19
-10 19 -11 -4 -36 -24 -27 -92 -62 -118 -63 -8 0 -23 14 -32 30 -23 40 -58 40
-92 -1 -18 -21 -26 -42 -26 -69 0 -41 17 -90 32 -90 4 0 8 -4 8 -9 0 -8 -157
-50 -252 -66 -54 -10 -73 0 -123 64 -24 32 -70 76 -102 97 -98 65 -191 59
-362 -23 l-94 -45 -17 22 c-47 63 -85 232 -96 426 -8 156 1 194 82 355 199
398 511 701 1034 1004 259 151 701 353 913 419 370 115 1078 256 1595 317 285
34 628 42 972 23z"/>
<path d="M4880 4068 c-82 -8 -115 -21 -135 -52 -14 -21 -15 -31 -5 -63 33
-104 145 -222 235 -248 58 -17 73 -15 184 22 46 15 108 27 165 30 145 9 276
66 276 119 0 21 -11 30 -72 59 -80 39 -128 45 -128 18 0 -9 10 -27 22 -40 12
-13 20 -25 17 -27 -2 -2 -58 -9 -124 -15 -66 -7 -161 -17 -211 -23 -50 -6
-102 -8 -116 -5 -30 8 -118 84 -118 102 0 8 15 18 33 23 30 8 211 1 342 -13
67 -7 101 7 90 37 -16 41 -313 91 -455 76z"/>
<path d="M3210 3928 c-47 -5 -118 -18 -158 -30 -63 -18 -85 -32 -158 -95 -97
-85 -157 -157 -190 -228 -44 -93 -26 -118 92 -129 84 -8 193 -40 276 -82 59
-30 126 -34 181 -10 93 38 235 159 282 240 36 62 75 182 75 233 0 64 -24 83
-103 83 -69 0 -104 -16 -94 -44 4 -9 15 -19 24 -22 10 -3 28 -10 40 -14 l22
-9 -24 -72 c-48 -141 -83 -180 -228 -253 l-75 -39 -124 41 c-68 22 -138 43
-155 47 -18 4 -36 11 -39 17 -17 27 135 197 212 236 37 19 159 59 252 82 32 8
42 16 40 28 -4 23 -49 29 -148 20z"/>
<path d="M4284 3920 c-30 -12 -36 -36 -19 -77 22 -53 20 -60 -37 -93 -66 -37
-79 -37 -107 1 -30 40 -67 37 -98 -10 -28 -42 -29 -86 -3 -128 23 -38 53 -48
120 -40 116 14 243 111 274 209 19 62 16 90 -17 126 -22 23 -72 29 -113 12z"/>
<path d="M5703 3822 c-35 -11 -63 -40 -63 -66 0 -58 128 -146 214 -148 97 -2
182 86 142 147 -28 43 -96 42 -96 -1 0 -17 -68 -19 -104 -3 -21 10 -23 15 -15
31 22 41 -13 59 -78 40z"/>
<path d="M4090 3439 c-62 -19 -97 -25 -293 -50 -131 -17 -152 -54 -48 -86 86
-27 267 -24 406 7 99 22 134 24 348 25 200 0 239 2 247 15 16 25 -11 40 -121
65 -205 47 -430 57 -539 24z"/>
<path d="M5137 3380 c-56 -17 -77 -59 -39 -79 43 -22 123 -43 195 -51 86 -8
320 5 349 21 27 14 22 37 -13 58 -73 44 -401 78 -492 51z"/>
<path d="M5981 3371 c-67 -24 -106 -60 -97 -93 13 -52 67 -129 101 -145 33
-16 37 -16 84 7 63 29 161 121 161 150 0 36 -20 61 -63 81 -53 24 -117 24
-186 0z"/>
<path d="M2948 3160 c-208 -21 -259 -45 -413 -194 -71 -67 -85 -86 -85 -112 0
-36 44 -109 89 -147 58 -48 85 -27 57 43 -9 22 -16 47 -16 56 0 26 97 120 158
152 130 69 277 84 560 58 265 -25 295 -29 300 -44 2 -7 -27 -43 -65 -80 -49
-48 -98 -84 -175 -126 -79 -42 -108 -63 -108 -77 0 -26 18 -25 158 11 65 16
172 34 242 40 117 10 170 25 170 49 0 23 -15 44 -47 66 l-35 23 41 21 c89 46
86 134 -7 196 -65 43 -237 66 -512 70 -129 2 -270 0 -312 -5z"/>
<path d="M5068 3101 c-66 -22 -124 -55 -138 -81 -17 -31 -12 -85 10 -105 24
-22 100 -31 129 -15 28 14 25 53 -4 58 -42 8 -34 20 26 41 80 27 92 27 84 1
-8 -24 10 -50 34 -50 21 0 66 47 76 78 24 80 -83 116 -217 73z"/>
<path d="M6640 2933 c-134 -27 -386 -95 -401 -109 -46 -42 1 -85 123 -110 73
-16 154 -15 399 2 100 7 200 -7 274 -39 94 -41 200 -18 193 41 -2 20 -13 32
-38 43 -19 9 -106 52 -193 95 -157 78 -157 78 -245 80 -48 1 -98 0 -112 -3z"/>
<path d="M4073 2810 c-68 -28 -51 -172 24 -201 55 -21 133 20 133 70 0 31 -52
116 -80 131 -22 12 -47 12 -77 0z"/>
<path d="M4726 2705 c-133 -47 -236 -156 -251 -267 -18 -130 -1 -177 98 -270
101 -96 134 -112 218 -104 51 4 91 18 172 57 126 60 291 104 450 120 139 14
139 14 135 41 -6 43 -68 63 -193 63 -102 -1 -121 -4 -269 -49 -236 -71 -309
-72 -424 -3 -59 35 -70 58 -53 110 15 44 97 146 138 169 28 17 37 18 100 6 77
-14 167 -15 330 -3 109 8 113 7 167 -19 30 -15 89 -58 129 -97 41 -38 80 -69
86 -69 39 0 13 130 -42 202 -53 70 -76 76 -287 82 -157 5 -198 9 -275 31 -111
31 -142 31 -229 0z"/>
<path d="M5883 2659 c-50 -16 -64 -25 -69 -44 -7 -28 28 -95 71 -135 25 -23
34 -25 130 -25 115 0 145 13 145 65 0 64 -110 161 -181 159 -19 0 -62 -9 -96
-20z"/>
<path d="M2029 2613 c-59 -56 -59 -56 -59 -115 0 -49 4 -63 25 -83 29 -30 26
-30 137 -4 125 29 150 58 108 126 -30 49 -114 133 -134 133 -10 0 -44 -25 -77
-57z"/>
<path d="M1378 2571 c-94 -37 -190 -125 -223 -205 -46 -109 17 -206 134 -206
114 0 271 116 271 200 0 24 -41 28 -60 5 -15 -17 -101 -45 -142 -45 -36 0 -37
21 -1 73 30 43 92 83 168 109 64 21 72 48 22 72 -45 21 -110 20 -169 -3z"/>
<path d="M2760 2483 c-19 -18 -39 -54 -55 -102 -24 -67 -25 -75 -10 -97 19
-29 84 -48 146 -42 77 8 180 68 193 114 9 29 -52 88 -129 125 -75 36 -106 37
-145 2z"/>
<path d="M6783 2273 c-47 -34 -83 -82 -83 -111 0 -18 51 -72 82 -88 17 -9 49
-16 73 -16 74 0 215 80 215 122 0 40 -116 116 -192 126 -39 5 -49 2 -95 -33z"/>
<path d="M6298 2245 c-5 -5 -57 -12 -101 -14 -10 -1 -32 -14 -48 -30 -61 -62
-28 -127 96 -188 68 -33 100 -27 122 25 17 40 12 156 -8 193 -9 17 -48 26 -61
14z"/>
<path d="M7400 2099 c-124 -23 -142 -39 -119 -107 7 -20 18 -62 24 -92 14 -72
33 -75 116 -16 90 62 110 87 116 139 4 36 1 49 -16 66 -22 22 -46 24 -121 10z"/>
<path d="M5817 1910 c-46 -42 -57 -59 -66 -101 -27 -126 -13 -139 121 -105
162 42 170 48 149 118 -16 51 -95 138 -127 138 -13 0 -45 -21 -77 -50z"/>
<path d="M4530 1913 c-223 -77 -294 -108 -325 -143 -19 -21 -26 -21 -171 -18
-180 4 -172 7 -236 -118 -33 -64 -41 -88 -33 -100 6 -9 49 -31 95 -48 47 -18
99 -40 117 -49 42 -22 85 -21 125 3 46 28 80 26 293 -20 103 -22 200 -40 215
-40 22 0 41 14 85 63 31 34 61 72 66 85 11 30 11 109 -1 191 -7 50 -6 70 6 92
7 15 14 34 14 42 0 34 -57 26 -88 -12 -36 -44 -52 -97 -52 -181 -1 -115 -15
-135 -91 -127 -30 3 -92 13 -139 22 -53 11 -145 18 -245 20 -178 3 -235 10
-235 31 0 8 3 14 8 14 4 1 70 2 147 3 156 2 208 18 232 68 9 19 48 45 133 89
126 67 166 99 157 124 -6 16 -45 20 -77 9z"/>
<path d="M6765 1622 c-84 -14 -102 -54 -32 -72 81 -21 92 -26 95 -48 8 -54
-73 -114 -189 -138 -181 -38 -527 21 -537 92 -3 19 6 21 120 32 68 7 161 20
208 30 74 15 85 20 88 40 2 16 -2 22 -15 23 -10 0 -110 0 -223 -1 -231 -1
-275 -11 -304 -69 -27 -52 -21 -86 25 -136 93 -101 244 -141 494 -132 234 9
346 47 405 136 80 120 51 211 -75 238 -22 5 -49 7 -60 5z"/>
<path d="M3213 1251 c-81 -39 -86 -57 -37 -128 60 -87 86 -98 152 -64 49 25
172 142 172 163 0 33 -47 52 -139 55 -77 2 -92 0 -148 -26z"/>
<path d="M4033 1179 c-61 -53 -83 -86 -83 -125 0 -40 36 -73 97 -89 63 -16
100 -11 179 26 70 33 100 66 89 98 -8 27 -77 85 -131 110 -66 31 -95 27 -151
-20z"/>
</g>
</svg>
