<?xml version="1.0" standalone="no"?>
<!DOCTYPE svg PUBLIC "-//W3C//DTD SVG 20010904//EN"
 "http://www.w3.org/TR/2001/REC-SVG-20010904/DTD/svg10.dtd">
<svg version="1.0" xmlns="http://www.w3.org/2000/svg"
 width="920.000000pt" height="801.000000pt" viewBox="0 0 920.000000 801.000000"
 preserveAspectRatio="xMidYMid meet">

<g transform="translate(0.000000,801.000000) scale(0.100000,-0.100000)"
fill="#000000" stroke="none">
<path d="M8840 7984 c-63 -7 -250 -27 -415 -44 -165 -17 -534 -55 -820 -86
-467 -50 -525 -58 -572 -80 -79 -38 -116 -115 -99 -207 4 -19 58 -123 121
-231 63 -108 115 -200 115 -205 0 -12 -854 -501 -1355 -776 -99 -54 -220 -121
-270 -148 -178 -100 -671 -344 -737 -365 -57 -18 -74 -20 -128 -11 -124 20
-341 109 -564 231 -207 113 -298 139 -404 118 -59 -12 -150 -58 -1042 -525
-228 -120 -615 -322 -860 -450 -245 -128 -634 -332 -865 -452 -231 -121 -501
-263 -599 -314 -199 -104 -255 -149 -301 -243 -99 -202 -18 -445 180 -542 54
-26 70 -29 160 -29 l101 0 104 52 c58 29 254 130 435 225 496 261 583 307 920
483 171 89 499 261 730 382 231 121 577 302 768 402 l349 183 381 -178 c210
-98 391 -183 402 -190 45 -28 138 -46 209 -41 83 6 118 23 571 276 160 90 351
197 425 238 74 42 189 106 255 143 66 37 237 133 380 212 143 80 458 256 701
392 243 135 446 246 452 246 6 0 19 -15 28 -32 43 -83 179 -306 203 -331 65
-72 154 -84 230 -34 43 28 69 66 328 472 88 138 299 466 468 730 170 264 321
504 337 534 34 65 36 118 6 156 -45 57 -108 65 -328 39z"/>
<path d="M7336 5629 c-172 -50 -506 -239 -617 -349 -38 -38 -77 -88 -92 -120
l-27 -55 2 -2400 3 -2400 27 -58 c38 -80 82 -133 143 -173 98 -62 123 -65 517
-62 343 3 355 4 410 26 81 33 160 108 200 190 l33 67 3 2441 2 2441 -39 79
c-74 148 -226 311 -341 366 -61 30 -139 32 -224 7z"/>
<path d="M5695 4716 c-150 -58 -509 -257 -677 -376 -174 -124 -309 -277 -358
-407 -20 -54 -20 -63 -18 -1841 l3 -1787 31 -65 c41 -86 108 -153 192 -193
l67 -32 380 0 380 0 66 32 c123 61 200 171 219 314 6 46 9 846 7 2124 -3 2207
0 2084 -51 2183 -38 73 -129 91 -241 48z"/>
<path d="M3413 4411 c-86 -24 -292 -109 -383 -159 -154 -84 -266 -188 -318
-292 l-27 -55 -3 -1754 c-1 -1146 1 -1774 8 -1809 24 -130 105 -239 219 -295
l66 -32 361 -3 c346 -3 364 -2 424 18 115 39 184 102 238 217 l27 58 0 1875 0
1875 -33 69 c-47 99 -151 200 -266 256 -75 38 -96 44 -164 47 -54 2 -98 -3
-149 -16z"/>
<path d="M1725 3540 c-214 -62 -571 -216 -700 -303 -133 -90 -248 -234 -286
-357 -19 -64 -19 -93 -17 -1285 l3 -1220 32 -68 c39 -82 110 -154 190 -194
l58 -28 385 0 385 0 58 27 c123 58 206 172 228 312 15 92 5 2780 -10 2866 -21
123 -49 197 -90 240 -34 36 -42 40 -87 39 -27 0 -94 -13 -149 -29z"/>
</g>
</svg>
